<svg width="20" height="12" viewBox="0 0 20 12" fill="none" xmlns="http://www.w3.org/2000/svg">
<path fill-rule="evenodd" clip-rule="evenodd" d="M0.500001 1.99999C0.499628 1.63721 0.63074 1.2866 0.869052 1.01308C1.10736 0.739555 1.43673 0.56167 1.79614 0.512365C2.15555 0.463061 2.52065 0.54568 2.82381 0.744919C3.12698 0.944158 3.34767 1.24651 3.445 1.59599C5.392 8.09799 14.603 8.09899 16.554 1.60099C16.6088 1.41095 16.7007 1.23362 16.8243 1.07922C16.9479 0.924823 17.1009 0.796398 17.2743 0.70134C17.4478 0.606281 17.6383 0.546466 17.835 0.525336C18.0317 0.504207 18.2305 0.522181 18.4202 0.578223C18.6099 0.634266 18.7867 0.72727 18.9403 0.851884C19.0939 0.976497 19.2213 1.13026 19.3152 1.30432C19.4092 1.47838 19.4678 1.6693 19.4876 1.86609C19.5075 2.06289 19.4883 2.26167 19.431 2.45099C19.0893 3.6186 18.5395 4.71487 17.808 5.68699L18.768 6.64699C18.9112 6.78543 19.0254 6.951 19.1039 7.13404C19.1824 7.31708 19.2237 7.51393 19.2254 7.7131C19.227 7.91227 19.189 8.10977 19.1134 8.29408C19.0379 8.47839 18.9265 8.64581 18.7856 8.78658C18.6447 8.92736 18.4771 9.03865 18.2928 9.11399C18.1084 9.18932 17.9108 9.22718 17.7117 9.22536C17.5125 9.22353 17.3157 9.18207 17.1327 9.10337C16.9498 9.02467 16.7843 8.91032 16.646 8.76699L15.636 7.75699C15.111 8.11658 14.5516 8.42309 13.966 8.67199L14.209 9.57799C14.3012 9.95855 14.2409 10.3601 14.041 10.6968C13.8411 11.0335 13.5175 11.2787 13.1393 11.38C12.761 11.4813 12.3582 11.4307 12.0167 11.239C11.6753 11.0473 11.4224 10.7297 11.312 10.354L11.061 9.41899C10.356 9.49199 9.644 9.49199 8.939 9.41899L8.689 10.354C8.5861 10.7383 8.33475 11.066 7.99024 11.2649C7.64574 11.4639 7.2363 11.5179 6.852 11.415C6.4677 11.3121 6.14002 11.0607 5.94105 10.7162C5.74207 10.3717 5.6881 9.96229 5.791 9.57799L6.033 8.67099C5.44777 8.42235 4.88869 8.11618 4.364 7.75699L3.354 8.76699C3.2157 8.91032 3.05023 9.02467 2.86727 9.10337C2.6843 9.18207 2.48749 9.22353 2.28832 9.22536C2.08915 9.22718 1.89162 9.18932 1.70724 9.11399C1.52286 9.03865 1.35533 8.92736 1.21442 8.78658C1.07352 8.64581 0.962061 8.47839 0.886553 8.29408C0.811044 8.10977 0.772999 7.91227 0.774635 7.7131C0.776271 7.51393 0.817556 7.31708 0.896082 7.13404C0.974608 6.951 1.0888 6.78543 1.232 6.64699L2.192 5.68699C1.46223 4.71646 0.913444 3.62229 0.572001 2.45699C0.524512 2.3093 0.500223 2.15513 0.500001 1.99999Z" fill="white"/>
</svg>
